<svg fill="none" xmlns="http://www.w3.org/2000/svg" viewBox="0 0 191 179">
  <g filter="url(#SctI4NlsbKH7a)">
    <ellipse cx="95.5" cy="85.5" rx="91.5" ry="85.5" fill="#45B0FD"/>
    <path d="M186.5 85.5c0 46.913-40.71 85-91 85s-91-38.087-91-85 40.71-85 91-85 91 38.087 91 85z" stroke="url(#SctI4NlsbKH7b)"/>
  </g>
  <g filter="url(#SctI4NlsbKH7c)">
    <path d="M131.432 125.92l-18.304-68.096h-1.024L98.152 124l-11.52 1.92-27.776-63.104h-.768L56.04 124l-12.8.64 6.016-83.84 30.976-1.28 12.928 60.928 14.976-61.568 30.976 1.92 3.84 83.2-11.52 1.92z" fill="#000"/>
  </g>
  <g filter="url(#SctI4NlsbKH7d)">
    <path fill="#45B0FD" d="M110 83h66v26h-66z"/>
  </g>
  <g filter="url(#SctI4NlsbKH7e)">
    <mask id="SctI4NlsbKH7f" fill="#fff">
      <path d="M124.576 109.944c-.224-.064-.352-.304-.384-.72a4.094 4.094 0 01-.144-.744 17.933 17.933 0 01-.024-.984c0-.336.056-.8.168-1.392.112-.576.264-1.232.456-1.968.208-.736.456-1.528.744-2.376.288-.864.608-1.736.96-2.616.432-1.104.808-2.056 1.128-2.856.32-.816.584-1.52.792-2.112.224-.592.4-1.08.528-1.464.144-.384.256-.712.336-.984.064-.192.16-.424.288-.696.128-.272.272-.544.432-.816.176-.288.352-.552.528-.792.176-.256.336-.448.48-.576.56.08 1.088.224 1.584.432s.8.408.912.6c-.224.208-.48.536-.768.984a14.89 14.89 0 00-.84 1.44c-.272.512-.52 1.04-.744 1.584a12.17 12.17 0 00-.504 1.44c.16-.272.368-.568.624-.888.256-.32.648-.76 1.176-1.32.592-.608 1.144-1.072 1.656-1.392.528-.336.984-.504 1.368-.504.608 0 1.104.168 1.488.504.4.336.6.768.6 1.296 0 1.152-.192 2.296-.576 3.432a10.24 10.24 0 01-1.656 3.048 7.066 7.066 0 01-.96 1.008 9.83 9.83 0 01-1.152.864c-.4.24-.792.432-1.176.576-.384.144-.728.216-1.032.216-.288 0-.544-.056-.768-.168a1.064 1.064 0 01-.432-.456c.624-.368 1.232-.88 1.824-1.536a13.605 13.605 0 001.632-2.256 17.14 17.14 0 001.32-2.784c.384-.992.672-2 .864-3.024-.608.32-1.16.672-1.656 1.056-.48.368-.96.856-1.44 1.464a92.894 92.894 0 00-1.368 1.704c-.336.432-.616.8-.84 1.104a9 9 0 00-.528.864c-.128.256-.272.576-.432.96a33.486 33.486 0 00-.792 2.04 85.687 85.687 0 00-.912 2.808c-.304 1.04-.616 2.144-.936 3.312-.304 1.184-.6 2.36-.888 3.528-.176-.032-.328-.16-.456-.384a8.037 8.037 0 00-.288-.312.437.437 0 00-.192-.144zm13.681-9.48c0-.704.168-1.688.504-2.952.336-1.28.808-2.768 1.416-4.464.992-2.704 1.92-4.952 2.784-6.744.88-1.808 1.736-3.216 2.568-4.224.192.032.424.112.696.24.288.128.568.272.84.432.272.144.512.296.72.456.224.16.368.288.432.384a29.56 29.56 0 00-3.288 4.752c-.944 1.696-1.808 3.64-2.592 5.832-.672 1.888-1.184 3.592-1.536 5.112-.352 1.504-.528 2.76-.528 3.768v.504c0 .064.008.128.024.192a1.88 1.88 0 01-.576-.168c-.16-.08-.264-.176-.312-.288-.032-.08-.12-.2-.264-.36a3.178 3.178 0 00-.384-.336c-.144-.096-.264-.344-.36-.744a6.202 6.202 0 01-.144-1.392zm8.434 2.376c-.912-.096-1.64-.496-2.184-1.2-.544-.704-.816-1.6-.816-2.688 0-.64.096-1.304.288-1.992a9.322 9.322 0 01.816-1.992c.352-.656.768-1.272 1.248-1.848a9.09 9.09 0 011.56-1.488c.88-.656 1.704-.984 2.472-.984.512.272 1.016.84 1.512 1.704h.216a.892.892 0 01.216-.024c.848 0 1.272.752 1.272 2.256a8.264 8.264 0 01-.504 2.88 8.368 8.368 0 01-1.368 2.448 8.077 8.077 0 01-2.088 1.872c-.8.496-1.68.848-2.64 1.056zm1.224-7.56c-.272.368-.528.768-.768 1.2-.24.432-.448.872-.624 1.32a8.353 8.353 0 00-.408 1.272c-.096.4-.144.76-.144 1.08 0 .384.064.752.192 1.104.128.352.272.552.432.6a5.226 5.226 0 001.968-.888c.608-.448 1.128-1 1.56-1.656a7.72 7.72 0 001.032-2.232c.256-.832.384-1.72.384-2.664 0-.416-.024-.744-.072-.984a1.814 1.814 0 00-.24-.624 5.29 5.29 0 00-1.896 1.008c-.544.464-1.016.952-1.416 1.464zm15.562 3a55.836 55.836 0 01-1.104 3.192c-.368.96-.76 1.84-1.176 2.64-.416.816-.864 1.56-1.344 2.232a16.798 16.798 0 01-1.584 1.944c-.736.768-1.496 1.352-2.28 1.752-.784.416-1.568.624-2.352.624-.4 0-.8-.048-1.2-.144a4.76 4.76 0 01-1.08-.36 3.592 3.592 0 01-.912-.528c-.272-.192-.464-.4-.576-.624 0-.192.112-.36.336-.504.192.176.352.312.48.408.128.096.256.176.384.24.112.064.24.104.384.12.128.016.28.024.456.024.912 0 1.8-.272 2.664-.816.88-.528 1.704-1.288 2.472-2.28.784-.976 1.496-2.168 2.136-3.576.64-1.392 1.184-2.952 1.632-4.68l-.768 1.176c-.304.464-.64.928-1.008 1.392-.368.448-.752.856-1.152 1.224-.384.368-.76.616-1.128.744a3.225 3.225 0 01-.816-.168 3.19 3.19 0 01-.792-.36 3.158 3.158 0 01-.648-.576 1.744 1.744 0 01-.384-.768c0-.464.016-.832.048-1.104.032-.288.088-.6.168-.936.144-.608.352-1.296.624-2.064.288-.768.616-1.52.984-2.256.384-.752.8-1.448 1.248-2.088.464-.656.944-1.168 1.44-1.536.128 0 .288.016.48.048.192.016.392.056.6.12.208.064.408.144.6.24.192.08.36.192.504.336-.176.16-.56.696-1.152 1.608-.592.912-1.248 2.224-1.968 3.936-.08.176-.176.432-.288.768-.112.336-.224.688-.336 1.056-.096.368-.184.728-.264 1.08-.08.352-.12.632-.12.84 0 .128.016.224.048.288.048.064.088.112.12.144.288-.048.672-.28 1.152-.696.48-.432 1.024-1.096 1.632-1.992.384-.576.736-1.144 1.056-1.704.32-.576.632-1.152.936-1.728l.984-1.776c.336-.608.696-1.232 1.08-1.872.208 0 .432.024.672.072.24.048.472.112.696.192a2.4 2.4 0 01.576.24c.176.08.304.168.384.264a99.264 99.264 0 00-1.392 3.096 34.106 34.106 0 00-1.152 3.096zm11.31-6.216c-.064.992-.24 1.848-.528 2.568a5.648 5.648 0 01-1.248 1.872c-.528.528-1.176 1.008-1.944 1.44-.768.432-1.664.848-2.688 1.248 0 .096-.008.2-.024.312v.312c0 .208.016.424.048.648.032.224.088.432.168.624a1.3 1.3 0 00.336.48.873.873 0 00.552.168c.432 0 .856-.096 1.272-.288a6.69 6.69 0 001.176-.696 9.836 9.836 0 001.056-.912c.336-.336.632-.64.888-.912.16.144.296.28.408.408-.72.96-1.512 1.76-2.376 2.4-.848.624-1.656 1.024-2.424 1.2-1.104-.128-1.968-.528-2.592-1.2-.608-.688-.912-1.512-.912-2.472 0-.656.088-1.32.264-1.992.192-.688.448-1.344.768-1.968.336-.64.72-1.24 1.152-1.8.448-.56.92-1.048 1.416-1.464a7.226 7.226 0 011.56-.984c.544-.24 1.08-.36 1.608-.36.736.096 1.424.552 2.064 1.368zm-1.656.792c-.432.064-.88.24-1.344.528a5.83 5.83 0 00-1.32 1.152c-.4.48-.768 1.04-1.104 1.68a9.68 9.68 0 00-.792 2.064c1.28-.64 2.344-1.424 3.192-2.352.848-.944 1.304-1.968 1.368-3.072zm2.191 8.664c.08-.464.216-1.072.408-1.824a55.22 55.22 0 01.72-2.424c.272-.864.56-1.728.864-2.592.304-.864.6-1.64.888-2.328.208-.496.392-.88.552-1.152.16-.288.336-.528.528-.72.224.032.456.088.696.168.24.08.472.176.696.288.224.112.424.232.6.36.176.112.312.224.408.336a9.223 9.223 0 00-1.152 1.752c-.32.656-.648 1.496-.984 2.52a33.96 33.96 0 002.28-2.208 17.265 17.265 0 001.872-2.352c.096-.08.264-.12.504-.12.224 0 .44.04.648.12.208.064.352.16.432.288a6.46 6.46 0 00-.432 2.28c0 .704.104 1.232.312 1.584-.016.096-.128.28-.336.552a5.882 5.882 0 01-.648.768 3.923 3.923 0 01-1.152-.912 4.068 4.068 0 01-.744-1.296 15.81 15.81 0 00-1.92 1.56 8.164 8.164 0 00-1.368 1.68 10.764 10.764 0 00-.96 2.112c-.256.8-.504 1.752-.744 2.856a1.788 1.788 0 01-.528-.168 4.33 4.33 0 01-.6-.312 4.61 4.61 0 01-.528-.408c-.16-.144-.264-.28-.312-.408z"/>
    </mask>
    <path d="M124.576 109.944c-.224-.064-.352-.304-.384-.72a4.094 4.094 0 01-.144-.744 17.933 17.933 0 01-.024-.984c0-.336.056-.8.168-1.392.112-.576.264-1.232.456-1.968.208-.736.456-1.528.744-2.376.288-.864.608-1.736.96-2.616.432-1.104.808-2.056 1.128-2.856.32-.816.584-1.52.792-2.112.224-.592.4-1.08.528-1.464.144-.384.256-.712.336-.984.064-.192.16-.424.288-.696.128-.272.272-.544.432-.816.176-.288.352-.552.528-.792.176-.256.336-.448.48-.576.56.08 1.088.224 1.584.432s.8.408.912.6c-.224.208-.48.536-.768.984a14.89 14.89 0 00-.84 1.44c-.272.512-.52 1.04-.744 1.584a12.17 12.17 0 00-.504 1.44c.16-.272.368-.568.624-.888.256-.32.648-.76 1.176-1.32.592-.608 1.144-1.072 1.656-1.392.528-.336.984-.504 1.368-.504.608 0 1.104.168 1.488.504.4.336.6.768.6 1.296 0 1.152-.192 2.296-.576 3.432a10.24 10.24 0 01-1.656 3.048 7.066 7.066 0 01-.96 1.008 9.83 9.83 0 01-1.152.864c-.4.24-.792.432-1.176.576-.384.144-.728.216-1.032.216-.288 0-.544-.056-.768-.168a1.064 1.064 0 01-.432-.456c.624-.368 1.232-.88 1.824-1.536a13.605 13.605 0 001.632-2.256 17.14 17.14 0 001.32-2.784c.384-.992.672-2 .864-3.024-.608.32-1.16.672-1.656 1.056-.48.368-.96.856-1.44 1.464a92.894 92.894 0 00-1.368 1.704c-.336.432-.616.8-.84 1.104a9 9 0 00-.528.864c-.128.256-.272.576-.432.96a33.486 33.486 0 00-.792 2.04 85.687 85.687 0 00-.912 2.808c-.304 1.04-.616 2.144-.936 3.312-.304 1.184-.6 2.36-.888 3.528-.176-.032-.328-.16-.456-.384a8.037 8.037 0 00-.288-.312.437.437 0 00-.192-.144zm13.681-9.48c0-.704.168-1.688.504-2.952.336-1.28.808-2.768 1.416-4.464.992-2.704 1.92-4.952 2.784-6.744.88-1.808 1.736-3.216 2.568-4.224.192.032.424.112.696.24.288.128.568.272.84.432.272.144.512.296.72.456.224.16.368.288.432.384a29.56 29.56 0 00-3.288 4.752c-.944 1.696-1.808 3.64-2.592 5.832-.672 1.888-1.184 3.592-1.536 5.112-.352 1.504-.528 2.76-.528 3.768v.504c0 .064.008.128.024.192a1.88 1.88 0 01-.576-.168c-.16-.08-.264-.176-.312-.288-.032-.08-.12-.2-.264-.36a3.178 3.178 0 00-.384-.336c-.144-.096-.264-.344-.36-.744a6.202 6.202 0 01-.144-1.392zm8.434 2.376c-.912-.096-1.64-.496-2.184-1.2-.544-.704-.816-1.6-.816-2.688 0-.64.096-1.304.288-1.992a9.322 9.322 0 01.816-1.992c.352-.656.768-1.272 1.248-1.848a9.09 9.09 0 011.56-1.488c.88-.656 1.704-.984 2.472-.984.512.272 1.016.84 1.512 1.704h.216a.892.892 0 01.216-.024c.848 0 1.272.752 1.272 2.256a8.264 8.264 0 01-.504 2.88 8.368 8.368 0 01-1.368 2.448 8.077 8.077 0 01-2.088 1.872c-.8.496-1.68.848-2.64 1.056zm1.224-7.56c-.272.368-.528.768-.768 1.2-.24.432-.448.872-.624 1.32a8.353 8.353 0 00-.408 1.272c-.096.4-.144.76-.144 1.08 0 .384.064.752.192 1.104.128.352.272.552.432.6a5.226 5.226 0 001.968-.888c.608-.448 1.128-1 1.56-1.656a7.72 7.72 0 001.032-2.232c.256-.832.384-1.72.384-2.664 0-.416-.024-.744-.072-.984a1.814 1.814 0 00-.24-.624 5.29 5.29 0 00-1.896 1.008c-.544.464-1.016.952-1.416 1.464zm15.562 3a55.836 55.836 0 01-1.104 3.192c-.368.96-.76 1.84-1.176 2.64-.416.816-.864 1.56-1.344 2.232a16.798 16.798 0 01-1.584 1.944c-.736.768-1.496 1.352-2.28 1.752-.784.416-1.568.624-2.352.624-.4 0-.8-.048-1.2-.144a4.76 4.76 0 01-1.08-.36 3.592 3.592 0 01-.912-.528c-.272-.192-.464-.4-.576-.624 0-.192.112-.36.336-.504.192.176.352.312.48.408.128.096.256.176.384.24.112.064.24.104.384.12.128.016.28.024.456.024.912 0 1.8-.272 2.664-.816.88-.528 1.704-1.288 2.472-2.28.784-.976 1.496-2.168 2.136-3.576.64-1.392 1.184-2.952 1.632-4.68l-.768 1.176c-.304.464-.64.928-1.008 1.392-.368.448-.752.856-1.152 1.224-.384.368-.76.616-1.128.744a3.225 3.225 0 01-.816-.168 3.19 3.19 0 01-.792-.36 3.158 3.158 0 01-.648-.576 1.744 1.744 0 01-.384-.768c0-.464.016-.832.048-1.104.032-.288.088-.6.168-.936.144-.608.352-1.296.624-2.064.288-.768.616-1.52.984-2.256.384-.752.8-1.448 1.248-2.088.464-.656.944-1.168 1.44-1.536.128 0 .288.016.48.048.192.016.392.056.6.12.208.064.408.144.6.24.192.08.36.192.504.336-.176.16-.56.696-1.152 1.608-.592.912-1.248 2.224-1.968 3.936-.08.176-.176.432-.288.768-.112.336-.224.688-.336 1.056-.096.368-.184.728-.264 1.08-.08.352-.12.632-.12.84 0 .128.016.224.048.288.048.064.088.112.12.144.288-.048.672-.28 1.152-.696.48-.432 1.024-1.096 1.632-1.992.384-.576.736-1.144 1.056-1.704.32-.576.632-1.152.936-1.728l.984-1.776c.336-.608.696-1.232 1.08-1.872.208 0 .432.024.672.072.24.048.472.112.696.192a2.4 2.4 0 01.576.24c.176.08.304.168.384.264a99.264 99.264 0 00-1.392 3.096 34.106 34.106 0 00-1.152 3.096zm11.31-6.216c-.064.992-.24 1.848-.528 2.568a5.648 5.648 0 01-1.248 1.872c-.528.528-1.176 1.008-1.944 1.44-.768.432-1.664.848-2.688 1.248 0 .096-.008.2-.024.312v.312c0 .208.016.424.048.648.032.224.088.432.168.624a1.3 1.3 0 00.336.48.873.873 0 00.552.168c.432 0 .856-.096 1.272-.288a6.69 6.69 0 001.176-.696 9.836 9.836 0 001.056-.912c.336-.336.632-.64.888-.912.16.144.296.28.408.408-.72.96-1.512 1.76-2.376 2.4-.848.624-1.656 1.024-2.424 1.2-1.104-.128-1.968-.528-2.592-1.2-.608-.688-.912-1.512-.912-2.472 0-.656.088-1.32.264-1.992.192-.688.448-1.344.768-1.968.336-.64.72-1.24 1.152-1.8.448-.56.92-1.048 1.416-1.464a7.226 7.226 0 011.56-.984c.544-.24 1.08-.36 1.608-.36.736.096 1.424.552 2.064 1.368zm-1.656.792c-.432.064-.88.24-1.344.528a5.83 5.83 0 00-1.32 1.152c-.4.48-.768 1.04-1.104 1.68a9.68 9.68 0 00-.792 2.064c1.28-.64 2.344-1.424 3.192-2.352.848-.944 1.304-1.968 1.368-3.072zm2.191 8.664c.08-.464.216-1.072.408-1.824a55.22 55.22 0 01.72-2.424c.272-.864.56-1.728.864-2.592.304-.864.6-1.64.888-2.328.208-.496.392-.88.552-1.152.16-.288.336-.528.528-.72.224.032.456.088.696.168.24.08.472.176.696.288.224.112.424.232.6.36.176.112.312.224.408.336a9.223 9.223 0 00-1.152 1.752c-.32.656-.648 1.496-.984 2.52a33.96 33.96 0 002.28-2.208 17.265 17.265 0 001.872-2.352c.096-.08.264-.12.504-.12.224 0 .44.04.648.12.208.064.352.16.432.288a6.46 6.46 0 00-.432 2.28c0 .704.104 1.232.312 1.584-.016.096-.128.28-.336.552a5.882 5.882 0 01-.648.768 3.923 3.923 0 01-1.152-.912 4.068 4.068 0 01-.744-1.296 15.81 15.81 0 00-1.92 1.56 8.164 8.164 0 00-1.368 1.68 10.764 10.764 0 00-.96 2.112c-.256.8-.504 1.752-.744 2.856a1.788 1.788 0 01-.528-.168 4.33 4.33 0 01-.6-.312 4.61 4.61 0 01-.528-.408c-.16-.144-.264-.28-.312-.408z" fill="#000"/>
    <path d="M124.576 109.944l.371-.928-.047-.019-.049-.015-.275.962zm-.384-.72l.997-.077-.008-.111-.033-.106-.956.294zm-.144-.744l-.998.055.001.028.003.027.994-.11zm.144-2.376l-.982-.191-.001.005.983.186zm.456-1.968l-.962-.272-.003.01-.003.01.968.252zm.744-2.376l.947.322.002-.006-.949-.316zm.96-2.616l.929.371.002-.007-.931-.364zm1.128-2.856l.928.371.003-.006-.931-.365zm.792-2.112l-.935-.354-.005.011-.003.011.943.332zm.528-1.464l-.936-.351-.007.017-.006.018.949.316zm.336-.984l-.949-.316-.005.017-.005.017.959.282zm.288-.696l.905.426-.905-.426zm.432-.816l-.853-.521-.005.007-.004.007.862.507zm.528-.792l.806.591.009-.012.009-.013-.824-.566zm.48-.576l.141-.99-.459-.066-.346.309.664.747zm1.584.432l.387-.922-.387.922zm.912.6l.68.733.587-.545-.403-.692-.864.504zm-.768.984l.832.555.005-.007.004-.007-.841-.541zm-.84 1.44l.883.47.006-.012-.889-.458zm-.744 1.584l-.925-.38.925.38zm-.504 1.44l-.966-.26 1.828.767-.862-.507zm.624-.888l-.781-.625.781.625zm1.176-1.32l-.716-.698-.006.006-.006.006.728.686zm1.656-1.392l.53.848.007-.004-.537-.844zm2.856 0l-.659.753.008.006.008.007.643-.766zm.024 4.728l.946.324.001-.004-.947-.32zm-1.656 3.048l-.785-.62-.006.009.791.611zm-2.112 1.872l.514.857.013-.007.012-.008-.539-.842zm-1.176.576l.351.936-.351-.936zm-1.8.048l-.524.852.037.023.04.019.447-.894zm-.432-.456l-.508-.861-.774.456.372.819.91-.414zm3.456-3.792l-.86-.51-.003.005.863.505zm1.32-2.784l-.933-.361-.005.013.938.348zm.864-3.024l.983.184.381-2.032-1.83.963.466.885zM133.648 93l.608.794.004-.003-.612-.791zm-1.44 1.464l.774.633.005-.006.006-.007-.785-.62zm-1.368 1.704l.789.614-.789-.614zm-.84 1.104l-.805-.593-.01.014-.01.014.825.565zm-.528.864l-.884-.468-.005.01-.005.01.894.448zm-.432.96l.916.4.004-.007.003-.008-.923-.385zm-.792 2.04l-.941-.337-.004.01.945.327zm-.912 2.808l-.956-.294-.004.013.96.281zm-.936 3.312l-.964-.264-.003.008-.002.007.969.249zm-.888 3.528l-.179.984.925.168.225-.913-.971-.239zm-.456-.384l.868-.496-.051-.091-.07-.077-.747.664zm-.288-.312l-.8.6.043.057.05.05.707-.707zm.083-1.106a.624.624 0 01.229.124.508.508 0 01.114.139c.016.029.016.04.012.021a.738.738 0 01-.017-.119l-1.994.154c.037.475.22 1.351 1.106 1.605l.55-1.924zm.297-.052a3.075 3.075 0 01-.106-.56l-1.988.22c.037.332.095.644.182.928l1.912-.588zm-.102-.505a17.815 17.815 0 01-.022-.929h-2c0 .382.008.729.026 1.039l1.996-.11zm-.022-.929c0-.243.043-.635.151-1.206l-1.966-.372c-.116.613-.185 1.149-.185 1.578h2zm.15-1.201c.107-.55.253-1.185.442-1.907l-1.936-.504c-.195.75-.353 1.427-.47 2.029l1.964.382zm.436-1.887c.203-.717.446-1.492.729-2.326l-1.894-.644a48.45 48.45 0 00-.759 2.426l1.924.544zm.731-2.332c.281-.844.594-1.698.939-2.56l-1.856-.743a48.714 48.714 0 00-.981 2.671l1.898.632zm.942-2.568a519.05 519.05 0 011.125-2.849l-1.856-.742a355.31 355.31 0 00-1.131 2.863l1.862.728zm1.128-2.855a63.9 63.9 0 00.804-2.146l-1.886-.663c-.203.578-.463 1.27-.78 2.079l1.862.73zm.796-2.123c.227-.599.408-1.1.542-1.502l-1.898-.632c-.122.366-.293.84-.514 1.426l1.87.708zm.529-1.467c.149-.398.27-.75.359-1.053l-1.918-.564c-.071.24-.174.544-.313.915l1.872.702zm.349-1.019c.047-.141.125-.334.244-.586l-1.81-.852a7.687 7.687 0 00-.332.806l1.898.632zm.244-.586c.114-.243.244-.488.389-.735l-1.724-1.014a11.09 11.09 0 00-.475.897l1.81.852zm.38-.72c.164-.268.324-.508.481-.723l-1.612-1.182c-.195.265-.387.553-.575.862l1.706 1.042zm.499-.748a2.41 2.41 0 01.32-.395l-1.328-1.494a4.16 4.16 0 00-.64.757l1.648 1.132zm-.485-.152c.48.069.925.19 1.338.364l.774-1.844a7.442 7.442 0 00-1.83-.5l-.282 1.98zm1.338.364c.216.09.355.165.437.22a.45.45 0 01.056.04s-.007-.006-.016-.018a.496.496 0 01-.042-.06l1.728-1.008c-.168-.288-.418-.488-.626-.625a4.768 4.768 0 00-.763-.393l-.774 1.844zm.619-1.055c-.315.292-.624.702-.929 1.176l1.682 1.082c.271-.422.474-.668.607-.792l-1.36-1.466zm-.92 1.162c-.312.468-.61.98-.897 1.537l1.778.916c.257-.5.519-.947.783-1.343l-1.664-1.11zm-.891 1.526a19.001 19.001 0 00-.786 1.672l1.85.762a16.82 16.82 0 01.702-1.496l-1.766-.938zm-.786 1.672a13.45 13.45 0 00-.545 1.561l1.932.52a11 11 0 01.463-1.32l-1.85-.76zm1.283 2.328c.13-.22.308-.477.543-.77l-1.562-1.25a8.72 8.72 0 00-.705 1.006l1.724 1.014zm.543-.77c.23-.288.6-.705 1.123-1.259l-1.456-1.372a24.63 24.63 0 00-1.229 1.381l1.562 1.25zm1.111-1.247c.557-.572 1.047-.978 1.47-1.242l-1.06-1.696c-.601.376-1.215.898-1.842 1.542l1.432 1.396zm1.477-1.246c.459-.292.722-.348.831-.348v-2c-.659 0-1.308.28-1.905.66l1.074 1.688zm.831-.348c.415 0 .661.11.829.257l1.318-1.506c-.6-.524-1.346-.751-2.147-.751v2zm.845.27a.62.62 0 01.243.53h2c0-.82-.328-1.533-.957-2.062l-1.286 1.532zm.243.53a9.671 9.671 0 01-.523 3.112l1.894.64a11.64 11.64 0 00.629-3.752h-2zm-.522 3.108a9.232 9.232 0 01-1.495 2.752l1.57 1.24a11.254 11.254 0 001.817-3.344l-1.892-.648zm-1.501 2.76a6.065 6.065 0 01-.825.865l1.312 1.51a8.056 8.056 0 001.095-1.152l-1.582-1.222zm-.825.865a8.831 8.831 0 01-1.035.777l1.078 1.684c.442-.283.865-.6 1.269-.951l-1.312-1.51zm-1.01.762a6.316 6.316 0 01-1.013.497l.702 1.872a8.14 8.14 0 001.339-.655l-1.028-1.714zm-1.013.497c-.309.115-.531.152-.681.152v2c.458 0 .924-.107 1.383-.28l-.702-1.872zm-.681.152a.718.718 0 01-.321-.062l-.894 1.788a2.68 2.68 0 001.215.274v-2zm-.244-.02a.257.257 0 01-.062-.046c-.002-.002.007.007.016.028l-1.82.828c.181.399.485.689.818.894l1.048-1.704zm-.448 1.257c.728-.429 1.413-1.012 2.058-1.727l-1.484-1.34c-.539.597-1.07 1.038-1.59 1.345l1.016 1.722zm2.058-1.727a14.6 14.6 0 001.753-2.421l-1.726-1.01c-.465.796-.97 1.491-1.511 2.091l1.484 1.34zm1.75-2.416a18.175 18.175 0 001.398-2.946l-1.876-.696a16.107 16.107 0 01-1.242 2.622l1.72 1.02zm1.393-2.933c.405-1.048.71-2.115.914-3.2l-1.966-.37a15.99 15.99 0 01-.814 2.848l1.866.722zm-.535-4.27c-.654.345-1.256.728-1.802 1.15l1.224 1.582a10.26 10.26 0 011.51-.962l-.932-1.77zm-1.798 1.147c-.562.43-1.099.983-1.617 1.638l1.57 1.24c.442-.56.865-.985 1.263-1.29l-1.216-1.588zm-1.606 1.625a93.45 93.45 0 00-1.383 1.723l1.578 1.228a90.17 90.17 0 011.353-1.685l-1.548-1.266zm-1.383 1.723c-.34.436-.625.811-.856 1.125l1.61 1.186c.217-.294.492-.655.824-1.083l-1.578-1.228zm-.876 1.153c-.226.33-.422.65-.587.961l1.768.936c.123-.233.279-.489.469-.767l-1.65-1.13zm-.597.982c-.142.283-.296.626-.461 1.022l1.846.77c.155-.372.289-.67.403-.898l-1.788-.894zm-.454 1.006a33.93 33.93 0 00-.817 2.104l1.882.674c.301-.837.556-1.494.767-1.976l-1.832-.802zm-.821 2.114c-.293.845-.6 1.792-.923 2.841l1.912.588c.317-1.031.618-1.956.901-2.775l-1.89-.654zm-.927 2.854a198.534 198.534 0 00-.94 3.329l1.928.528c.319-1.163.63-2.261.932-3.295l-1.92-.562zm-.945 3.344a407.484 407.484 0 00-.89 3.538l1.942.478c.287-1.164.582-2.337.886-3.518l-1.938-.498zm.26 2.793a.487.487 0 01.219.099c.036.031.036.044.014.005l-1.736.992c.207.363.568.767 1.145.872l.358-1.968zm.112-.064a8.464 8.464 0 00-.328-.355l-1.414 1.414c.042.042.122.128.248.269l1.494-1.328zm-.235-.248a1.432 1.432 0 00-.621-.472l-.742 1.856a.56.56 0 01-.237-.184l1.6-1.2zm13.193-11.976l.967.257v-.003l-.967-.254zm1.416-4.464l-.939-.344-.002.007.941.337zm2.784-6.744l-.899-.438-.002.004.901.434zm2.568-4.224l.165-.986-.569-.095-.367.444.771.637zm.696.24l-.426.905.01.004.01.005.406-.914zm.84.432l-.507.862.019.011.02.01.468-.883zm.72.456l-.61.793.014.01.015.01.581-.813zm.432.384l.763.647.487-.575-.418-.627-.832.555zm-3.288 4.752l-.874-.486.874.486zm-2.592 5.832l-.941-.337-.001.002.942.335zm-1.536 5.112l.974.228v-.002l-.974-.226zm-.504 4.464l-.141.99 1.472.21-.361-1.443-.97.243zm-.576-.168l.447-.894-.447.894zm-.312-.288l-.928.371.004.012.005.011.919-.394zm-.264-.36l.743-.669-.017-.02-.019-.018-.707.707zm-.384-.336l.581-.814-.013-.009-.013-.009-.555.832zm-.36-.744l-.974.225.002.008.972-.233zm.856-1.392c0-.573.141-1.456.471-2.695l-1.933-.514c-.343 1.29-.538 2.374-.538 3.209h2zm.471-2.698c.327-1.244.789-2.703 1.39-4.38l-1.882-.675c-.615 1.714-1.097 3.23-1.442 4.547l1.934.508zm1.388-4.374c.985-2.685 1.901-4.9 2.746-6.654l-1.802-.868c-.882 1.83-1.823 4.111-2.822 6.834l1.878.688zm2.744-6.65c.862-1.77 1.678-3.102 2.44-4.025l-1.542-1.274c-.902 1.093-1.798 2.578-2.696 4.423l1.798.876zm1.505-3.676c.066.011.205.051.434.159l.852-1.81a3.746 3.746 0 00-.957-.321l-.329 1.972zm.454.168c.253.112.5.24.739.38l1.014-1.724a9.217 9.217 0 00-.941-.484l-.812 1.828zm.778.402c.231.122.422.244.578.365l1.22-1.586a6.13 6.13 0 00-.862-.547l-.936 1.768zm.607.386a2.512 2.512 0 01.217.172l-.01-.011-.026-.036 1.664-1.11c-.176-.264-.459-.483-.683-.643l-1.162 1.628zm.25-1.077a30.618 30.618 0 00-3.399 4.913l1.748.972a28.503 28.503 0 013.177-4.591l-1.526-1.294zm-3.399 4.913c-.975 1.752-1.861 3.747-2.659 5.981l1.883.674c.769-2.15 1.611-4.043 2.524-5.683l-1.748-.972zm-2.66 5.983c-.681 1.914-1.205 3.656-1.568 5.221l1.948.452c.342-1.474.842-3.141 1.504-5.003l-1.884-.67zm-1.568 5.22c-.361 1.543-.554 2.881-.554 3.995h2c0-.902.159-2.076.502-3.54l-1.948-.456zm-.554 3.995v.504h2v-.504h-2zm0 .504c0 .148.019.294.054.435l1.94-.486a.23.23 0 01.006.051h-2zm1.166-.798a.937.937 0 01-.271-.072l-.894 1.788c.278.139.578.221.882.264l.283-1.98zm-.271-.072c-.044-.023.08.025.16.212l-1.838.788c.176.411.509.651.784.788l.894-1.788zm.17.235c-.106-.265-.31-.503-.45-.658l-1.486 1.338c.058.065.093.108.111.132l.004.006c-.003-.006-.019-.032-.036-.076l1.857-.742zm-.486-.696a4.195 4.195 0 00-.51-.443l-1.162 1.628c.051.036.136.107.258.229l1.414-1.414zm-.536-.461c.075.05.117.1.135.123.018.023.02.032.012.015a.952.952 0 01-.037-.095 2.266 2.266 0 01-.052-.188l-1.945.466c.057.24.131.477.234.689.096.198.26.465.543.654l1.11-1.664zm.06-.137a5.202 5.202 0 01-.119-1.167h-2a7.2 7.2 0 00.17 1.617l1.949-.45zm7.315 1.209l-.104.995.159.016.157-.034-.212-.977zm-2.184-1.2l-.791.611.791-.611zm-.528-4.68l.963.269-.963-.269zm.816-1.992l.877.482.004-.01-.881-.472zm1.248-1.848l.768.64-.768-.64zm1.56-1.488l.597.803.001-.001-.598-.802zm2.472-.984l.469-.883-.22-.117h-.249v1zm1.512 1.704l-.867.498.288.502h.579v-1zm.216 0v1h.123l.12-.03-.243-.97zm.984 5.112l-.938-.346-.003.01.941.336zm-1.368 2.448l-.779-.627-.008.01.787.617zm-2.088 1.872l.527.85.005-.003-.532-.847zm-1.416-6.504l-.788-.616-.008.01-.008.012.804.594zm-1.392 2.52l.926.377.005-.011-.931-.366zm-.408 1.272l.973.233.002-.008-.975-.225zm.048 2.184l-.94.342.94-.342zm.432.6l-.287.958.25.075.254-.057-.217-.976zm1.968-.888l.59.808.003-.003-.593-.805zm1.56-1.656l-.826-.564-.004.007-.005.007.835.55zm1.032-2.232l-.956-.294-.002.008-.003.009.961.277zm.312-3.648l.981-.196-.981.196zm-.24-.624l.844-.537-.405-.636-.722.214.283.959zm-1.896 1.008l-.638-.77-.005.004-.006.005.649.761zm-2.535 8.029c-.65-.068-1.126-.336-1.497-.816l-1.583 1.222c.717.928 1.696 1.46 2.871 1.584l.209-1.99zm-1.497-.816c-.381-.493-.608-1.16-.608-2.077h-2c0 1.259.318 2.384 1.025 3.299l1.583-1.222zm-.608-2.077c0-.54.081-1.113.251-1.723l-1.926-.538a8.385 8.385 0 00-.325 2.261h2zm.251-1.723a8.369 8.369 0 01.729-1.78l-1.752-.963c-.388.706-.69 1.441-.903 2.205l1.926.538zm.734-1.788a10.03 10.03 0 011.135-1.68l-1.536-1.281c-.523.627-.977 1.3-1.361 2.015l1.762.946zm1.135-1.68a8.14 8.14 0 011.389-1.326l-1.193-1.606a10.092 10.092 0 00-1.732 1.65l1.536 1.281zm1.39-1.327c.779-.581 1.397-.786 1.874-.786v-2c-1.058 0-2.088.451-3.069 1.182l1.195 1.604zm1.405-.903c.265.14.652.515 1.114 1.319l1.735-.996c-.531-.924-1.151-1.686-1.911-2.09l-.938 1.767zm1.981 1.821h.216v-2h-.216v2zm.459-.03a.266.266 0 01-.03.006h.003v-2c-.145 0-.3.014-.458.054l.485 1.94zm-.027.006c.06 0 .065.012.048.002-.016-.01.001-.008.035.053.086.153.189.51.189 1.201h2c0-.813-.109-1.584-.447-2.183-.385-.683-1.032-1.073-1.825-1.073v2zm.272 1.256c0 .894-.148 1.737-.442 2.534l1.877.692a9.27 9.27 0 00.565-3.226h-2zm-.445 2.544a7.364 7.364 0 01-1.206 2.157l1.558 1.254a9.355 9.355 0 001.531-2.739l-1.883-.672zm-1.214 2.168a7.08 7.08 0 01-1.832 1.641l1.063 1.694a9.092 9.092 0 002.344-2.103l-1.575-1.232zm-1.828 1.638a7.303 7.303 0 01-2.325.929l.424 1.954a9.29 9.29 0 002.955-1.183l-1.054-1.7zm-1.693-6.248c-.3.405-.579.842-.838 1.308l1.748.972c.221-.398.454-.76.698-1.092l-1.608-1.188zm-.838 1.308c-.261.47-.488.95-.681 1.44l1.862.732a9.9 9.9 0 01.567-1.2l-1.748-.972zm-.676 1.429a9.382 9.382 0 00-.456 1.424l1.949.45c.083-.36.202-.733.359-1.12l-1.852-.754zm-.454 1.416c-.11.456-.172.896-.172 1.313h2c0-.223.034-.503.117-.847l-1.945-.466zm-.172 1.313c0 .498.084.981.252 1.446l1.88-.684a2.207 2.207 0 01-.132-.762h-2zm.252 1.446c.081.222.187.454.333.656.142.198.381.449.752.56l.575-1.916a.662.662 0 01.227.119c.045.036.066.065.069.069l-.02-.037a1.283 1.283 0 01-.056-.135l-1.88.684zm1.589 1.234a6.21 6.21 0 002.341-1.056l-1.179-1.616a4.24 4.24 0 01-1.596.72l.434 1.952zm2.344-1.059a7.411 7.411 0 001.802-1.911l-1.67-1.1a5.431 5.431 0 01-1.318 1.401l1.186 1.61zm1.793-1.897c.513-.751.9-1.594 1.167-2.519l-1.922-.554a6.713 6.713 0 01-.897 1.945l1.652 1.128zm1.162-2.502a10 10 0 00.428-2.958h-2a7.99 7.99 0 01-.34 2.37l1.912.588zm.428-2.958c0-.443-.024-.846-.091-1.18l-1.961.392c.029.146.052.399.052.788h2zm-.091-1.18a2.803 2.803 0 00-.377-.965l-1.687 1.074a.834.834 0 01.103.283l1.961-.392zm-1.504-1.387a6.285 6.285 0 00-2.251 1.197l1.276 1.54a4.29 4.29 0 011.542-.819l-.567-1.918zm-2.262 1.206c-.59.503-1.11 1.04-1.555 1.61l1.576 1.23a9.138 9.138 0 011.277-1.318l-1.298-1.522zm14.795 5.225l-.953-.303-.001.002.954.301zm-1.104 3.192l-.934-.358.934.358zm-1.176 2.64l-.887-.461-.004.007.891.454zm-1.344 2.232l-.814-.581-.006.009.82.572zm-1.584 1.944l.722.692.004-.004-.726-.688zm-2.28 1.752l-.454-.891-.008.004-.007.004.469.883zm-3.552.48l.233-.972-.014-.004-.015-.003-.204.979zm-1.08-.36l.43-.903-.025-.012-.026-.011-.379.926zm-.912-.528l.631-.776-.027-.021-.027-.02-.577.817zm-.576-.624h-1v.236l.106.211.894-.447zm.336-.504l.676-.737-.568-.521-.649.417.541.841zm.48.408l-.6.8.6-.8zm.384.24l.496-.868-.024-.014-.025-.012-.447.894zm.384.12l.124-.992-.014-.002-.11.994zm3.12-.792l-.514-.857-.01.005-.009.006.533.846zm2.472-2.28l-.78-.626-.005.007-.006.007.791.612zm2.136-3.576l-.909-.418-.001.004.91.414zm1.632-4.68l.968.251-1.806-.796.838.545zm-1.776 2.568l.773.635.005-.007.005-.007-.783-.621zm-1.152 1.224l-.677-.736-.008.007-.007.007.692.722zm-1.128.744l-.062.998.2.013.191-.067-.329-.944zm-.816-.168l.316-.949-.017-.005-.017-.005-.282.959zm-.792-.36l-.555.832.013.008.012.008.53-.848zm-.648-.576l-.759.651.759-.651zm-.384-.768h-1v.11l.024.107.976-.217zm.048-1.104l.993.117.001-.007-.994-.11zm.168-.936l.973.232v-.001l-.973-.231zm.624-2.064l-.936-.351-.004.008-.003.01.943.333zm.984-2.256l-.891-.455-.003.008.894.447zm1.248-2.088l-.816-.578-.003.005.819.573zm1.44-1.536v-1h-.33l-.266.197.596.803zm.48.048l-.164.986.04.007.041.003.083-.996zm.6.12l-.294.956.294-.956zm.6.24l-.447.894.031.016.031.013.385-.923zm.504.336l.673.74.776-.706-.742-.741-.707.707zm-3.12 5.544l.91.414.006-.013.006-.013-.922-.388zm-.624 1.824l-.957-.291-.006.02-.005.019.968.252zm-.336 2.208l-.894.447.04.081.054.072.8-.6zm.12.144l-.707.707.364.364.507-.085-.164-.986zm1.152-.696l.655.756.007-.006.007-.007-.669-.743zm1.632-1.992l.828.561.004-.006-.832-.555zm1.056-1.704l.868.496.006-.01-.874-.486zm.936-1.728l-.874-.486-.005.01-.005.01.884.466zm.984-1.776l-.875-.484.875.484zm1.08-1.872v-1h-.566l-.291.486.857.514zm.672.072l.196-.98-.196.98zm.696.192l-.336.942.03.01.031.01.275-.962zm.576.24l-.514.858.048.029.052.023.414-.91zm.384.264l.905.425.271-.576-.408-.49-.768.641zm-3.498 5.892a54.483 54.483 0 01-1.084 3.134l1.868.716c.376-.982.751-2.066 1.124-3.25l-1.908-.6zm-1.084 3.134c-.356.93-.733 1.774-1.129 2.537l1.774.922a26.5 26.5 0 001.223-2.743l-1.868-.716zm-1.133 2.544a16.537 16.537 0 01-1.267 2.105l1.628 1.162a18.54 18.54 0 001.421-2.359l-1.782-.908zm-1.273 2.114a15.847 15.847 0 01-1.49 1.828l1.452 1.376c.61-.644 1.17-1.331 1.678-2.06l-1.64-1.144zm-1.486 1.824c-.674.704-1.346 1.213-2.012 1.553l.908 1.782c.902-.46 1.75-1.119 2.548-1.951l-1.444-1.384zm-2.027 1.561c-.659.349-1.283.507-1.883.507v2c.968 0 1.912-.258 2.821-.741l-.938-1.766zm-1.883.507a4.14 4.14 0 01-.967-.116l-.466 1.944c.474.114.952.172 1.433.172v-2zm-.996-.123a3.774 3.774 0 01-.854-.284l-.86 1.806c.412.196.848.341 1.306.436l.408-1.958zm-.905-.307a2.59 2.59 0 01-.66-.378l-1.262 1.552c.343.279.735.502 1.164.678l.758-1.852zm-.714-.419c-.18-.127-.241-.218-.259-.254l-1.788.894c.206.412.529.737.893.994l1.154-1.634zm-.153.193a.522.522 0 01-.084.285c-.04.06-.071.072-.039.052l-1.082-1.682c-.388.25-.795.69-.795 1.345h2zm-1.34.233c.204.186.391.347.556.471l1.2-1.6a5.434 5.434 0 01-.404-.345l-1.352 1.474zm.556.471c.17.128.349.241.537.334l.894-1.788a1.662 1.662 0 01-.231-.146l-1.2 1.6zm.488.308c.244.14.507.217.77.246l.22-1.988-.016-.002.018.008-.992 1.736zm.756.244c.181.023.376.032.58.032v-2c-.148 0-.257-.007-.332-.016l-.248 1.984zm.58.032c1.122 0 2.193-.338 3.197-.97l-1.066-1.692c-.724.456-1.429.662-2.131.662v2zm3.178-.959c1.008-.604 1.921-1.456 2.749-2.525l-1.582-1.224c-.708.915-1.443 1.583-2.195 2.035l1.028 1.714zm2.738-2.511c.846-1.054 1.6-2.321 2.266-3.788l-1.82-.828c-.614 1.349-1.284 2.466-2.006 3.364l1.56 1.252zm2.265-3.784c.668-1.454 1.231-3.07 1.691-4.847l-1.936-.502c-.436 1.68-.961 3.183-1.573 4.513l1.818.836zm-.115-5.643l-.766 1.173 1.672 1.096c.305-.465.562-.858.77-1.179l-1.676-1.09zm-.766 1.173a18.38 18.38 0 01-.955 1.319l1.566 1.242c.386-.486.74-.974 1.061-1.465l-1.672-1.096zm-.945 1.305c-.34.415-.692.789-1.056 1.123l1.354 1.472c.436-.402.852-.844 1.248-1.325l-1.546-1.27zm-1.071 1.137c-.316.303-.572.455-.765.522l.658 1.888c.543-.189 1.039-.533 1.491-.966l-1.384-1.444zm-.374.468a2.234 2.234 0 01-.562-.119l-.632 1.898c.355.118.713.195 1.07.217l.124-1.996zm-.596-.129a2.205 2.205 0 01-.544-.249l-1.06 1.696c.328.205.675.364 1.04.471l.564-1.918zm-.519-.233a2.17 2.17 0 01-.444-.395l-1.518 1.302c.25.292.534.545.852.757l1.11-1.664zm-.444-.395a.749.749 0 01-.167-.334l-1.952.434c.099.448.302.853.601 1.202l1.518-1.302zm-.143-.117c0-.448.016-.771.041-.987l-1.986-.234c-.039.328-.055.741-.055 1.221h2zm.042-.994c.027-.24.075-.511.147-.814l-1.946-.464a8.657 8.657 0 00-.189 1.058l1.988.22zm.147-.816c.134-.564.33-1.216.594-1.96l-1.886-.668c-.28.793-.5 1.516-.654 2.168l1.946.46zm.587-1.943c.276-.735.59-1.455.942-2.16l-1.788-.894a24.28 24.28 0 00-1.026 2.352l1.872.702zm.939-2.152c.364-.714.757-1.37 1.176-1.97l-1.638-1.147a18.604 18.604 0 00-1.32 2.207l1.782.91zm1.173-1.966c.421-.594.83-1.02 1.22-1.31l-1.192-1.606c-.602.447-1.153 1.044-1.66 1.761l1.632 1.156zm.624-1.113c.052 0 .153.007.316.034l.328-1.972a3.977 3.977 0 00-.644-.062v2zm.397.044c.112.01.241.034.389.08l.588-1.912a3.844 3.844 0 00-.811-.16l-.166 1.992zm.389.08c.156.048.305.107.447.178l.894-1.788a4.908 4.908 0 00-.753-.302l-.588 1.912zm.509.207c.074.03.132.07.182.12l1.414-1.414a2.54 2.54 0 00-.826-.552l-.77 1.846zm.216-1.327c-.178.162-.375.421-.56.68a30.65 30.65 0 00-.758 1.123l1.678 1.09c.292-.45.527-.798.706-1.049.199-.277.282-.366.28-.364l-1.346-1.48zm-1.318 1.803c-.639.985-1.321 2.36-2.051 4.093l1.844.776c.71-1.69 1.34-2.94 1.885-3.78l-1.678-1.088zm-2.039 4.067a9.314 9.314 0 00-.327.866l1.898.632a7.5 7.5 0 01.249-.67l-1.82-.828zm-.327.866a47.02 47.02 0 00-.344 1.08l1.914.583c.109-.36.219-.704.328-1.03l-1.898-.633zm-.355 1.12c-.098.377-.189.748-.271 1.11l1.95.444c.078-.341.163-.691.257-1.05l-1.936-.504zm-.271 1.11c-.086.38-.145.744-.145 1.062h2a3.1 3.1 0 01.095-.618l-1.95-.444zm-.145 1.062c0 .179.017.462.154.735l1.788-.894a.566.566 0 01.056.163c.004.02.002.021.002-.004h-2zm.248.888c.058.078.131.17.213.251l1.414-1.414.011.011-.004-.004-.034-.044-1.6 1.2zm1.084.53c.586-.097 1.152-.501 1.643-.926l-1.31-1.512a3.865 3.865 0 01-.51.386c-.136.082-.181.084-.151.08l.328 1.972zm1.657-.939c.567-.51 1.163-1.25 1.79-2.174l-1.654-1.123c-.589.868-1.081 1.457-1.474 1.81l1.338 1.487zm1.795-2.18c.396-.594.76-1.181 1.092-1.763l-1.736-.992a28.379 28.379 0 01-1.02 1.645l1.664 1.11zm1.098-1.773a88.01 88.01 0 00.946-1.747l-1.768-.934c-.301.57-.61 1.14-.926 1.71l1.748.97zm.936-1.728c.321-.577.649-1.17.985-1.778l-1.75-.968-.983 1.774 1.748.972zm.985-1.778c.33-.597.684-1.21 1.062-1.841l-1.714-1.03c-.39.65-.756 1.284-1.098 1.903l1.75.968zm.205-1.356a2.4 2.4 0 01.476.053l.392-1.962a4.431 4.431 0 00-.868-.091v2zm.476.053c.194.038.379.09.556.153l.672-1.884a5.968 5.968 0 00-.836-.23l-.392 1.96zm.617.172c.16.046.267.095.337.136l1.028-1.715a3.375 3.375 0 00-.815-.343l-.55 1.922zm.437.19a.62.62 0 01.075.039l-.009-.008a.36.36 0 01-.036-.038l1.536-1.28a2.048 2.048 0 00-.738-.534l-.828 1.82zm-.107-1.072a99.689 99.689 0 00-1.406 3.127l1.838.788c.427-.997.887-2.019 1.378-3.065l-1.81-.85zm-1.406 3.127c-.445 1.038-.84 2.1-1.186 3.187l1.906.606a33.05 33.05 0 011.118-3.005l-1.838-.788zm11.077-2.726l.998.064.025-.38-.236-.301-.787.617zm-.528 2.568l.926.379.003-.008-.929-.371zm-1.248 1.872l-.707-.707.707.707zm-1.944 1.44l-.49-.872.49.872zm-2.688 1.248l-.364-.931-.636.248v.683h1zm-.024.312l-.99-.141-.01.07v.071h1zm.048.96l.99-.141-.99.141zm.168.624l.923-.385-.923.385zm.336.48l-.664.747.024.022.026.02.614-.789zm1.824-.12l-.419-.908.419.908zm1.176-.696l.595.804.005-.004-.6-.8zm1.056-.912l-.707-.707.707.707zm.888-.912l.669-.743-.727-.654-.67.712.728.685zm.408.408l.8.6.487-.649-.534-.61-.753.659zm-2.376 2.4l.593.805.002-.001-.595-.804zm-2.424 1.2l-.115.993.171.02.168-.038-.224-.975zm-2.592-1.2l-.749.662.008.009.008.009.733-.68zm-.648-4.464l-.963-.269-.002.008-.002.008.967.253zm.768-1.968l-.885-.465-.005.009.89.456zm1.152-1.8l-.781-.625-.005.007-.006.007.792.611zm1.416-1.464l-.63-.776-.006.005-.006.005.642.766zm1.56-.984l-.403-.915-.011.005.414.91zm1.608-.36l.13-.992-.065-.008h-.065v1zm.408 2.16l.999.058.071-1.227-1.216.18.146.989zm-1.344.528l-.527-.85.527.85zm-1.32 1.152l-.756-.655-.006.007-.006.008.768.64zm-1.104 1.68l.886.465-.886-.465zm-.792 2.064l-.967-.252-.557 2.132 1.971-.986-.447-.894zm3.192-2.352l.738.675.006-.007-.744-.668zM173.789 92c-.059.914-.219 1.662-.458 2.26l1.857.743c.336-.84.528-1.805.597-2.875L173.789 92zm-.455 2.253a4.651 4.651 0 01-1.03 1.544l1.414 1.414a6.648 6.648 0 001.467-2.2l-1.851-.758zm-1.03 1.544c-.453.453-1.025.88-1.727 1.275l.98 1.744c.834-.47 1.558-1.002 2.161-1.605l-1.414-1.414zm-1.727 1.275c-.719.405-1.571.802-2.562 1.188l.728 1.863a22.302 22.302 0 002.814-1.307l-.98-1.744zm-3.198 2.12c0 .041-.003.097-.014.17l1.98.283c.022-.15.034-.302.034-.453h-2zm-.024.312v.313h2v-.312h-2zm0 .312c0 .259.02.523.058.789l1.98-.282a3.582 3.582 0 01-.038-.507h-2zm.058.789c.043.301.12.591.235.868l1.846-.77a1.54 1.54 0 01-.101-.38l-1.98.282zm.235.868c.133.319.33.607.595.842l1.329-1.494a.31.31 0 01-.078-.118l-1.846.77zm.645.884c.357.278.772.379 1.166.379v-2c-.029 0-.031-.004-.015.001a.25.25 0 01.077.042l-1.228 1.578zm1.166.379c.586 0 1.152-.131 1.691-.38l-.838-1.816a2.01 2.01 0 01-.853.196v2zm1.691-.38a7.695 7.695 0 001.352-.8l-1.189-1.608a5.693 5.693 0 01-1.001.592l.838 1.816zm1.357-.804c.42-.315.808-.649 1.163-1.005l-1.414-1.414a8.74 8.74 0 01-.949.819l1.2 1.6zm1.163-1.005c.342-.341.645-.653.909-.934l-1.456-1.37c-.248.263-.536.56-.867.89l1.414 1.414zm-.488-.876c.138.124.245.232.325.323l1.505-1.317a5.933 5.933 0 00-.492-.492l-1.338 1.486zm.277-.935c-.668.891-1.393 1.62-2.171 2.196l1.19 1.608c.951-.704 1.81-1.575 2.581-2.604l-1.6-1.2zm-2.168 2.195c-.773.568-1.457.893-2.055 1.03l.447 1.95c.938-.215 1.87-.69 2.793-1.37l-1.185-1.61zm-1.717 1.012c-.919-.107-1.545-.425-1.974-.887l-1.466 1.36c.819.882 1.922 1.364 3.21 1.513l.23-1.986zm-1.957-.869c-.439-.497-.662-1.082-.662-1.81h-2c0 1.192.385 2.255 1.163 3.134l1.499-1.324zm-.662-1.81c0-.566.076-1.144.232-1.739l-1.935-.506a8.812 8.812 0 00-.297 2.245h2zm.227-1.723a9.499 9.499 0 01.695-1.78l-1.78-.913a11.5 11.5 0 00-.841 2.155l1.926.538zm.691-1.772c.309-.59.662-1.141 1.058-1.654l-1.584-1.222a13.278 13.278 0 00-1.245 1.946l1.771.93zm1.047-1.64a9.304 9.304 0 011.278-1.323l-1.285-1.532c-.552.463-1.07 1-1.555 1.605l1.562 1.25zm1.266-1.313a6.2 6.2 0 011.343-.85l-.828-1.82a8.223 8.223 0 00-1.776 1.118l1.261 1.552zm1.333-.845a2.966 2.966 0 011.204-.275v-2a4.96 4.96 0 00-2.011.445l.807 1.83zm1.075-.283c.388.05.863.3 1.406.993l1.574-1.234c-.737-.94-1.637-1.601-2.721-1.743l-.259 1.984zm.391.179c-.597.088-1.173.325-1.725.667l1.055 1.7c.376-.234.695-.35.963-.389l-.293-1.978zm-1.725.667a6.843 6.843 0 00-1.549 1.347l1.512 1.31a4.82 4.82 0 011.092-.957l-1.055-1.7zm-1.561 1.362a10.521 10.521 0 00-1.221 1.855l1.771.93a8.565 8.565 0 01.986-1.505l-1.536-1.28zm-1.221 1.855c-.373.711-.664 1.47-.874 2.277l1.935.504a8.684 8.684 0 01.71-1.851l-1.771-.93zm.54 3.423c1.375-.687 2.542-1.541 3.483-2.571l-1.476-1.35c-.755.826-1.716 1.54-2.901 2.133l.894 1.788zm3.489-2.578c.976-1.086 1.543-2.319 1.623-3.682l-1.997-.116c-.049.845-.394 1.66-1.114 2.462l1.488 1.336zm2.815 4.924l-.985-.17-.046.267.095.254.936-.351zm.408-1.824l-.965-.261-.002.007-.002.007.969.247zm.72-2.424l.953.305.001-.005-.954-.3zm.864-2.592l-.943-.332.943.332zm.888-2.328l-.922-.387.922.387zm.552-1.152l.862.507.006-.01.006-.011-.874-.486zm.528-.72l.142-.99-.495-.07-.354.353.707.707zm.696.168l.317-.949-.317.949zm1.296.648l-.588.809.025.018.026.017.537-.844zm.408.336l.765.645.548-.65-.553-.646-.76.651zm-1.152 1.752l-.89-.456-.004.009-.004.009.898.438zm-.984 2.52l-.95-.312-1.155 3.522 2.77-2.463-.665-.747zm2.28-2.208l-.723-.69-.008.008.731.682zm1.872-2.352l-.64-.768-.111.093-.081.12.832.555zm1.152 0l-.359.933.032.013.033.01.294-.956zm.432.288l.937.351.173-.462-.262-.419-.848.53zm-.12 3.864l.987.164.06-.359-.186-.314-.861.509zm-.336.552l-.794-.608-.012.016-.011.015.817.577zm-.648.768l-.46.888.65.337.517-.518-.707-.707zm-1.152-.912l-.765.643.006.008.007.007.752-.658zm-.744-1.296l.946-.326-.433-1.256-1.087.764.574.818zm-1.92 1.56l.685.729.006-.006.005-.005-.696-.718zm-1.368 1.68l-.851-.524-.004.006.855.518zm-.96 2.112l-.946-.322-.003.009-.003.008.952.305zm-.744 2.856l-.11.994.896.099.191-.881-.977-.212zm-.528-.168l.419-.908-.017-.008-.017-.007-.385.923zm-.6-.312l-.554.832.015.01.015.01.524-.852zm.146-.646c.073-.427.202-1.006.391-1.747l-1.938-.494c-.195.763-.338 1.4-.424 1.901l1.971.34zm.388-1.733c.203-.751.439-1.544.707-2.38l-1.905-.61c-.276.86-.52 1.683-.733 2.468l1.931.522zm.708-2.385a80.25 80.25 0 01.854-2.56l-1.887-.664a83.734 83.734 0 00-.875 2.624l1.908.6zm.854-2.56c.299-.85.588-1.607.867-2.274l-1.845-.772a44.1 44.1 0 00-.909 2.382l1.887.664zm.867-2.273c.2-.48.364-.816.491-1.032l-1.724-1.014c-.193.328-.397.76-.612 1.272l1.845.774zm.503-1.053c.125-.224.247-.385.361-.499l-1.414-1.414a4.22 4.22 0 00-.695.941l1.748.972zm-.487-.216c.158.023.331.064.521.127l.633-1.898a4.996 4.996 0 00-.871-.209l-.283 1.98zm.521.127c.196.065.384.143.565.233l.895-1.788a6.34 6.34 0 00-.827-.343l-.633 1.898zm.565.233c.182.091.334.183.459.275l1.176-1.618a5.203 5.203 0 00-.74-.445l-.895 1.788zm.51.31c.125.079.175.13.186.143l1.519-1.302a2.818 2.818 0 00-.631-.529l-1.074 1.688zm.181-1.153a10.193 10.193 0 00-1.278 1.941l1.78.912a8.208 8.208 0 011.027-1.563l-1.529-1.29zm-1.286 1.959c-.347.71-.692 1.597-1.036 2.646l1.9.624c.328-1 .64-1.793.933-2.394l-1.797-.876zm.579 3.705a34.884 34.884 0 002.347-2.273l-1.463-1.364a33.037 33.037 0 01-2.213 2.143l1.329 1.494zm2.339-2.264a18.307 18.307 0 001.98-2.488l-1.664-1.11a16.294 16.294 0 01-1.763 2.216l1.447 1.382zm1.788-2.275a.535.535 0 01-.21.115c-.015.003.005-.003.074-.003v-2c-.288 0-.764.035-1.144.352l1.28 1.536zm-.136.112a.79.79 0 01.289.053l.718-1.866a2.79 2.79 0 00-1.007-.187v2zm.354.076c.034.01.03.013.004-.004a.449.449 0 01-.126-.134l1.696-1.06c-.253-.406-.648-.61-.986-.714l-.588 1.912zm-.21-1.02a7.466 7.466 0 00-.496 2.632h2c0-.622.119-1.263.369-1.929l-1.873-.702zm-.496 2.632c0 .77.108 1.512.451 2.093l1.722-1.018c-.073-.123-.173-.437-.173-1.075h-2zm.326 1.42a.723.723 0 01.047-.163c.005-.012.004-.007-.011.017a3.23 3.23 0 01-.18.254l1.589 1.216c.114-.15.218-.296.3-.43.061-.1.186-.313.228-.566l-1.973-.328zm-.167.14a4.801 4.801 0 01-.538.637l1.414 1.414c.28-.28.533-.579.758-.898l-1.634-1.154zm.63.456a2.924 2.924 0 01-.86-.682l-1.505 1.317a4.92 4.92 0 001.444 1.14l.921-1.775zm-.847-.667a3.064 3.064 0 01-.564-.979l-1.891.652c.202.587.514 1.126.924 1.613l1.531-1.286zm-2.084-1.471a16.816 16.816 0 00-2.042 1.66l1.392 1.436c.483-.468 1.08-.955 1.799-1.46l-1.149-1.636zm-2.03 1.65a9.11 9.11 0 00-1.535 1.884l1.703 1.048c.338-.55.738-1.04 1.201-1.475l-1.369-1.458zm-1.539 1.89c-.412.68-.76 1.452-1.051 2.308l1.893.644c.253-.744.544-1.38.869-1.916l-1.711-1.036zm-1.057 2.325a32.55 32.55 0 00-.769 2.949l1.954.424c.236-1.082.476-2.002.72-2.763l-1.905-.61zm.319 2.167c.008.001-.006 0-.047-.013a1.439 1.439 0 01-.173-.069l-.838 1.816c.256.118.543.221.837.254l.221-1.988zm-.254-.097a3.3 3.3 0 01-.461-.241l-1.048 1.704c.245.15.492.28.74.383l.769-1.846zm-.43-.221a3.658 3.658 0 01-.414-.319l-1.338 1.486c.199.179.413.344.643.497l1.109-1.664zm-.414-.319c-.022-.02-.038-.037-.051-.05a.32.32 0 01-.021-.024l.004.008a.295.295 0 01.024.05l-1.873.702c.128.341.362.604.579.8l1.338-1.486z" fill="#000" mask="url(#SctI4NlsbKH7f)"/>
  </g>
  <defs>
    <filter id="SctI4NlsbKH7a" x="0" y="0" width="191" height="179" filterUnits="userSpaceOnUse" color-interpolation-filters="sRGB">
      <feFlood flood-opacity="0" result="BackgroundImageFix"/>
      <feColorMatrix in="SourceAlpha" type="matrix" values="0 0 0 0 0 0 0 0 0 0 0 0 0 0 0 0 0 0 127 0" result="hardAlpha"/>
      <feOffset dy="4"/>
      <feGaussianBlur stdDeviation="2"/>
      <feComposite in2="hardAlpha" operator="out"/>
      <feColorMatrix type="matrix" values="0 0 0 0 0 0 0 0 0 0 0 0 0 0 0 0 0 0 0.25 0"/>
      <feBlend mode="normal" in2="BackgroundImageFix" result="effect1_dropShadow_0_1"/>
      <feBlend mode="normal" in="SourceGraphic" in2="effect1_dropShadow_0_1" result="shape"/>
    </filter>
    <filter id="SctI4NlsbKH7c" x="39.24" y="38.88" width="107.712" height="95.04" filterUnits="userSpaceOnUse" color-interpolation-filters="sRGB">
      <feFlood flood-opacity="0" result="BackgroundImageFix"/>
      <feColorMatrix in="SourceAlpha" type="matrix" values="0 0 0 0 0 0 0 0 0 0 0 0 0 0 0 0 0 0 127 0" result="hardAlpha"/>
      <feOffset dy="4"/>
      <feGaussianBlur stdDeviation="2"/>
      <feComposite in2="hardAlpha" operator="out"/>
      <feColorMatrix type="matrix" values="0 0 0 0 0 0 0 0 0 0 0 0 0 0 0 0 0 0 0.25 0"/>
      <feBlend mode="normal" in2="BackgroundImageFix" result="effect1_dropShadow_0_1"/>
      <feBlend mode="normal" in="SourceGraphic" in2="effect1_dropShadow_0_1" result="shape"/>
    </filter>
    <filter id="SctI4NlsbKH7d" x="106" y="79" width="74" height="34" filterUnits="userSpaceOnUse" color-interpolation-filters="sRGB">
      <feFlood flood-opacity="0" result="BackgroundImageFix"/>
      <feBlend mode="normal" in="SourceGraphic" in2="BackgroundImageFix" result="shape"/>
      <feGaussianBlur stdDeviation="2" result="effect1_foregroundBlur_0_1"/>
    </filter>
    <filter id="SctI4NlsbKH7e" x="120.024" y="78.08" width="69.258" height="36.704" filterUnits="userSpaceOnUse" color-interpolation-filters="sRGB">
      <feFlood flood-opacity="0" result="BackgroundImageFix"/>
      <feGaussianBlur in="BackgroundImageFix" stdDeviation="2"/>
      <feComposite in2="SourceAlpha" operator="in" result="effect1_backgroundBlur_0_1"/>
      <feBlend mode="normal" in="SourceGraphic" in2="effect1_backgroundBlur_0_1" result="shape"/>
    </filter>
    <linearGradient id="SctI4NlsbKH7b" x1="95.5" y1="0" x2="95.5" y2="171" gradientUnits="userSpaceOnUse">
      <stop stop-color="#041826"/>
      <stop offset="1" stop-color="#296997"/>
    </linearGradient>
  </defs>
</svg>
